<svg aria-hidden="true" style="position: absolute; width: 0; height: 0; overflow: hidden;" version="1.1" xmlns="http://www.w3.org/2000/svg" xmlns:xlink="http://www.w3.org/1999/xlink">
<defs>
<symbol id="icon-arrow-down" viewBox="0 0 32 32">
<path d="M7.609 12.948c-0.521 0.521-0.521 1.365 0 1.886l6.523 6.517c1.042 1.041 2.729 1.040 3.77-0.001l6.52-6.521c0.521-0.521 0.521-1.365 0-1.886s-1.365-0.521-1.886 0l-5.581 5.581c-0.521 0.521-1.365 0.521-1.886 0l-5.576-5.576c-0.521-0.521-1.365-0.521-1.886 0z"></path>
</symbol>
<symbol id="icon-add-to-cart" viewBox="0 0 32 32">
<path d="M18.667 2.667v8.781l3.057-3.057c0.521-0.521 1.365-0.521 1.886 0s0.521 1.365 0 1.886l-5.333 5.333c-0.521 0.521-1.365 0.521-1.886 0l-5.333-5.333c-0.521-0.521-0.521-1.365 0-1.886s1.365-0.521 1.886 0l3.057 3.057v-8.781c0-0.736 0.597-1.333 1.333-1.333s1.333 0.597 1.333 1.333zM1.333 4c0-0.736 0.597-1.333 1.333-1.333h0.63c1.804 0 3.384 1.207 3.859 2.948l3.196 11.719h13.963l2.639-9.684c0.194-0.71 0.927-1.129 1.637-0.936s1.129 0.926 0.936 1.637l-2.639 9.684c-0.316 1.161-1.37 1.966-2.573 1.966h-13.648v1.333c0 0.736 0.597 1.333 1.333 1.333h12c0.736 0 1.333 0.597 1.333 1.333 0 0.283-0.088 0.545-0.238 0.761 0.153 0.383 0.238 0.801 0.238 1.239 0 1.841-1.492 3.333-3.333 3.333s-3.333-1.492-3.333-3.333c0-0.228 0.023-0.451 0.067-0.667h-4.133c0.044 0.215 0.067 0.438 0.067 0.667 0 1.841-1.492 3.333-3.333 3.333s-3.333-1.492-3.333-3.333c0-0.849 0.318-1.625 0.841-2.213-0.527-0.677-0.841-1.529-0.841-2.454v-2.488l-3.417-12.529c-0.158-0.58-0.685-0.982-1.286-0.982h-0.63c-0.736 0-1.333-0.597-1.333-1.333zM21.333 26c0-0.368 0.299-0.667 0.667-0.667s0.667 0.299 0.667 0.667c0 0.368-0.299 0.667-0.667 0.667s-0.667-0.299-0.667-0.667zM10.667 26c0-0.368 0.298-0.667 0.667-0.667s0.667 0.299 0.667 0.667c0 0.368-0.298 0.667-0.667 0.667s-0.667-0.299-0.667-0.667z"></path>
</symbol>
<symbol id="icon-heart" viewBox="0 0 32 32">
<path fill="#1c274c" style="fill: var(--color1, #1c274c)" d="M11.949 25.215v0zM16 7.334l-0.721 0.693c0.189 0.196 0.449 0.307 0.721 0.307s0.532-0.111 0.721-0.307l-0.721-0.693zM20.051 25.215v0zM12.568 24.429c-2.021-1.593-4.231-3.149-5.984-5.123-1.719-1.935-2.918-4.194-2.918-7.124h-2c0 3.554 1.481 6.265 3.422 8.452 1.907 2.148 4.339 3.866 6.241 5.365l1.238-1.571zM3.667 12.183c0-2.868 1.62-5.273 3.832-6.284 2.149-0.982 5.036-0.722 7.78 2.129l1.441-1.387c-3.256-3.383-7.035-3.94-10.053-2.561-2.955 1.351-5.001 4.487-5.001 8.103h2zM11.33 26c0.683 0.538 1.416 1.113 2.159 1.547s1.59 0.787 2.511 0.787v-2c-0.413 0-0.899-0.161-1.502-0.514s-1.229-0.838-1.93-1.391l-1.238 1.571zM20.67 26c1.902-1.5 4.334-3.218 6.241-5.365 1.942-2.186 3.422-4.898 3.422-8.452h-2c0 2.93-1.199 5.188-2.918 7.124-1.753 1.974-3.963 3.53-5.984 5.123l1.238 1.571zM30.333 12.183c0-3.616-2.046-6.752-5.001-8.103-3.018-1.379-6.797-0.822-10.053 2.561l1.441 1.387c2.744-2.851 5.631-3.111 7.78-2.129 2.212 1.011 3.833 3.416 3.833 6.284h2zM19.432 24.429c-0.701 0.553-1.327 1.038-1.93 1.391s-1.089 0.514-1.502 0.514v2c0.921 0 1.768-0.353 2.511-0.787s1.476-1.008 2.159-1.547l-1.238-1.571z"></path>
</symbol>
</defs>
</svg>
